<?xml version="1.0" encoding="iso-8859-1"?>
<!-- Generator: Adobe Illustrator 19.0.0, SVG Export Plug-In . SVG Version: 6.00 Build 0)  -->
<svg version="1.1" id="Capa_1" xmlns="http://www.w3.org/2000/svg" xmlns:xlink="http://www.w3.org/1999/xlink" x="0px" y="0px"
	 viewBox="0 0 433.521 433.521" style="enable-background:new 0 0 433.521 433.521;" xml:space="preserve">
<path id="XMLID_1151_" d="M269.568,250.041c3.866,0,7,3.134,7,7s-3.134,7-7,7H209.34c-3.866,0-7-3.134-7-7s3.134-7,7-7H269.568z
	 M308.424,225.494c0-3.866-3.134-7-7-7H209.34c-3.866,0-7,3.134-7,7s3.134,7,7,7h92.084
	C305.29,232.494,308.424,229.36,308.424,225.494z M157.206,65.186V34.173c0-3.866,3.134-7,7-7l25.395-0.015
	C189.601,12.184,201.784,0,216.76,0c14.977,0,27.161,12.184,27.161,27.158v0.015h25.393c3.866,0,7,3.134,7,7v31.013
	c0,3.866-3.134,7-7,7H164.206C160.34,72.186,157.206,69.052,157.206,65.186z M171.206,58.186h91.107V41.173h-25.393
	c-3.866,0-7-3.134-7-7v-7.015c0-7.256-5.903-13.158-13.159-13.158c-7.257,0-13.161,5.902-13.161,13.158v7.015c0,3.866-3.134,7-7,7
	h-25.395V58.186z M383.593,51.005v365.651c0,9.3-7.565,16.865-16.865,16.865H66.793c-9.299,0-16.864-7.565-16.864-16.865V51.005
	c0-9.3,7.565-16.865,16.864-16.865h67.815c3.866,0,7,3.134,7,7s-3.134,7-7,7H95.517v337.661h242.487V48.14h-39.092
	c-3.866,0-7-3.134-7-7s3.134-7,7-7h67.815C376.027,34.14,383.593,41.705,383.593,51.005z M369.593,51.005
	c0-1.553-1.313-2.865-2.865-2.865h-14.724v344.661c0,3.866-3.134,7-7,7H88.517c-3.866,0-7-3.134-7-7V48.14H66.793
	c-1.553,0-2.864,1.313-2.864,2.865v365.651c0,1.553,1.312,2.865,2.864,2.865h299.935c1.553,0,2.865-1.313,2.865-2.865V51.005z
	 M128.694,128.322c-3.379,1.879-4.596,6.141-2.717,9.52l12.862,23.137c1.235,2.221,3.576,3.599,6.118,3.599
	c2.541,0,4.883-1.378,6.118-3.599l22.422-40.331c1.879-3.379,0.662-7.641-2.717-9.52c-3.377-1.877-7.641-0.663-9.52,2.717
	l-16.304,29.326l-6.744-12.132C136.336,127.66,132.073,126.443,128.694,128.322z M170.781,214.984
	c-3.379-1.878-7.642-0.662-9.52,2.717l-16.304,29.325l-6.744-12.132c-1.878-3.379-6.141-4.598-9.52-2.717
	c-3.379,1.879-4.596,6.141-2.717,9.52l12.862,23.137c1.235,2.221,3.576,3.599,6.118,3.599c2.541,0,4.883-1.377,6.118-3.599
	l22.422-40.33C175.377,221.125,174.16,216.863,170.781,214.984z M209.34,160.185h60.229c3.866,0,7-3.134,7-7s-3.134-7-7-7H209.34
	c-3.866,0-7,3.134-7,7S205.474,160.185,209.34,160.185z M301.424,114.638H209.34c-3.866,0-7,3.134-7,7s3.134,7,7,7h92.084
	c3.866,0,7-3.134,7-7S305.29,114.638,301.424,114.638z"/>
</svg>
