<?xml version="1.0" encoding="iso-8859-1"?>
<!-- Generator: Adobe Illustrator 16.0.0, SVG Export Plug-In . SVG Version: 6.00 Build 0)  -->
<!DOCTYPE svg PUBLIC "-//W3C//DTD SVG 1.1//EN" "http://www.w3.org/Graphics/SVG/1.1/DTD/svg11.dtd">
<svg version="1.1" id="Capa_1" xmlns="http://www.w3.org/2000/svg" xmlns:xlink="http://www.w3.org/1999/xlink" x="0px" y="0px"
	 width="219.927px" height="219.927px" viewBox="0 0 219.927 219.927" style="enable-background:new 0 0 219.927 219.927;"
	 xml:space="preserve">
<g>
	<path d="M216.661,27.26c-0.441-1.086-1.396-1.877-2.553-2.113c-1.153-0.234-2.341,0.13-3.169,0.957l-20.222,20.22l-16.241-0.862
		l-0.863-16.238l20.222-20.22c0.832-0.83,1.191-2.022,0.958-3.171c-0.232-1.153-1.026-2.11-2.114-2.551
		c-5.28-2.152-10.858-3.246-16.581-3.246c-11.7,0-22.702,4.557-30.967,12.83c-11.755,11.753-15.738,29.107-10.502,44.816
		l-76.693,76.694c-4.632-1.629-9.474-2.457-14.395-2.457c-11.63,0-22.561,4.565-30.777,12.867
		c-12.424,12.553-16.16,31.292-9.516,47.746c0.441,1.092,1.401,1.89,2.558,2.122c1.153,0.219,2.351-0.13,3.183-0.972l20.097-20.317
		l16.117,0.869l0.859,16.361l-20.122,20.327c-0.82,0.828-1.174,2.016-0.943,3.159c0.231,1.146,1.02,2.104,2.1,2.549
		c5.256,2.163,10.811,3.262,16.508,3.262c11.649,0,22.595-4.582,30.824-12.905c11.546-11.662,15.565-28.824,10.629-44.46
		l77.199-77.192c4.486,1.496,9.157,2.277,13.911,2.277c11.687,0,22.661-4.541,30.908-12.79
		C219.583,62.313,223.347,43.647,216.661,27.26z M69.448,202.059c-6.904,6.975-16.081,10.821-25.844,10.821
		c-2.958,0-5.869-0.356-8.701-1.055l17.23-17.404c0.693-0.705,1.058-1.667,1.01-2.652l-1.109-21.054
		c-0.094-1.789-1.52-3.217-3.311-3.315l-20.833-1.123c-0.975-0.034-1.973,0.329-2.681,1.041l-17.15,17.336
		c-3.013-12.456,0.532-25.693,9.687-34.943c6.889-6.957,16.05-10.79,25.795-10.79c4.18,0,8.292,0.708,12.215,2.111
		c0.163,0.059,0.32,0.127,0.477,0.195c0.348,0.321,0.739,0.592,1.194,0.753c1.27,0.444,2.497,0.961,3.688,1.533
		c3.09,1.677,5.895,3.736,8.33,6.204c3.213,3.247,5.785,7.08,7.664,11.42c0.09,0.208,0.167,0.417,0.248,0.637l0.214,0.554
		C82.926,176.067,79.736,191.662,69.448,202.059z M83.034,154.635c-1.896-3.286-4.197-6.287-6.878-8.974
		c-3.347-3.354-7.166-6.091-11.403-8.192l72.832-72.832c0.031,0.057,0.072,0.106,0.103,0.161c0.89,1.641,1.896,3.192,2.978,4.693
		c0.253,0.353,0.517,0.7,0.784,1.043c1.143,1.492,2.348,2.937,3.686,4.271c1.345,1.347,2.803,2.56,4.312,3.708
		c0.384,0.291,0.776,0.571,1.174,0.852c1.324,0.939,2.703,1.809,4.141,2.599c0.202,0.113,0.373,0.26,0.579,0.366L83.034,154.635z
		 M202.124,69.859c-6.927,6.928-16.143,10.741-25.954,10.741c-4.213,0-8.354-0.708-12.303-2.1c-0.185-0.067-0.366-0.147-0.541-0.224
		l-0.674-0.284c-0.123-0.049-0.232-0.113-0.359-0.157c-4.668-1.882-8.777-4.552-12.2-7.976c-3.233-3.232-5.813-7.041-7.692-11.351
		c-0.106-0.231-0.191-0.469-0.284-0.703l-0.024-0.067l-0.16-0.417c-5.377-13.66-2.17-29.166,8.161-39.497
		c6.944-6.949,16.181-10.776,26.013-10.776c2.97,0,5.896,0.351,8.74,1.042l-17.289,17.282c-0.702,0.701-1.075,1.671-1.023,2.664
		l1.112,20.945c0.093,1.786,1.526,3.217,3.312,3.311l20.95,1.114c1.003,0.066,1.961-0.318,2.663-1.023l17.292-17.287
		C214.895,47.479,211.329,60.657,202.124,69.859z"/>
</g>
<g>
</g>
<g>
</g>
<g>
</g>
<g>
</g>
<g>
</g>
<g>
</g>
<g>
</g>
<g>
</g>
<g>
</g>
<g>
</g>
<g>
</g>
<g>
</g>
<g>
</g>
<g>
</g>
<g>
</g>
</svg>
